<?xml version="1.0" encoding="UTF-8" ?>
<!DOCTYPE svg PUBLIC "-//W3C//DTD SVG 1.1//EN" "http://www.w3.org/Graphics/SVG/1.1/DTD/svg11.dtd">
<svg width="40pt" height="26pt" viewBox="0 0 40 26" version="1.1" xmlns="http://www.w3.org/2000/svg">
<g id="#000000ff">
<path fill="#000000" opacity="1.00" d=" M 6.26 1.28 C 10.99 -0.27 16.52 3.08 17.30 8.01 C 18.00 14.05 15.18 20.67 9.80 23.76 C 7.42 25.06 4.69 25.48 2.06 26.00 L 0.80 26.00 C 3.45 23.97 5.42 21.24 7.51 18.68 C 4.05 17.39 0.90 15.11 0.00 11.32 L 0.00 8.53 C 0.67 5.24 2.87 2.14 6.26 1.28 Z" />
<path fill="#000000" opacity="1.00" d=" M 27.38 1.46 C 32.19 -0.49 38.15 2.87 38.96 8.00 C 39.57 13.26 37.53 18.94 33.44 22.38 C 30.67 24.79 26.94 25.50 23.42 26.00 L 22.46 26.00 C 25.10 23.95 27.11 21.25 29.17 18.65 C 26.85 17.48 24.12 16.55 22.85 14.08 C 20.05 9.64 22.40 3.10 27.38 1.46 Z" />
</g>
</svg>
